<svg xmlns="http://www.w3.org/2000/svg" viewBox="0 0 512 512" role="img" aria-labelledby="title desc">
  <title id="title">DARK-GPT woven neural logo</title>
  <desc id="desc">Original circular AI logo with crossing neural strands by M4TH4CK3R.</desc>
  <defs>
    <linearGradient id="red" x1="90" y1="60" x2="425" y2="445" gradientUnits="userSpaceOnUse"><stop stop-color="#ff525a"/><stop offset="1" stop-color="#a3001e"/></linearGradient>
    <filter id="glow" x="-30%" y="-30%" width="160%" height="160%"><feGaussianBlur stdDeviation="4" result="blur"/><feMerge><feMergeNode in="blur"/><feMergeNode in="SourceGraphic"/></feMerge></filter>
  </defs>
  <rect width="512" height="512" rx="112" fill="#050505"/>
  <circle cx="256" cy="230" r="181" fill="none" stroke="#272727" stroke-width="3"/>
  <g fill="none" stroke="url(#red)" stroke-width="18" stroke-linecap="round" stroke-linejoin="round" filter="url(#glow)">
    <path d="M256 68C173 68 118 129 118 205s55 137 138 137 138-61 138-137S339 68 256 68Z"/>
    <path d="M137 127c-42 72-19 151 48 190s146 17 185-55 16-151-51-190-140-17-182 55Z"/>
    <path d="M375 127c42 72 19 151-48 190s-146 17-185-55-16-151 51-190 140-17 182 55Z"/>
  </g>
  <g fill="#050505" stroke="#f5f5f5" stroke-width="7">
    <circle cx="256" cy="68" r="12"/><circle cx="118" cy="205" r="12"/><circle cx="394" cy="205" r="12"/>
    <circle cx="185" cy="322" r="12"/><circle cx="327" cy="322" r="12"/>
  </g>
  <circle cx="256" cy="230" r="37" fill="#050505" stroke="url(#red)" stroke-width="10"/>
  <path d="M238 224l18 13 18-13M242 247c9 7 19 7 28 0" fill="none" stroke="#f5f5f5" stroke-width="7" stroke-linecap="round"/>
  <text x="256" y="444" text-anchor="middle" fill="#f5f5f5" font-family="Menlo, Monaco, monospace" font-size="19" font-weight="700" letter-spacing="4">M4TH4CK3R</text>
</svg>
